<svg xmlns="http://www.w3.org/2000/svg" viewBox="0 0 279.78 61.77"><defs><style>.cls-1{fill:#fff;}</style></defs><g id="Layer_2" data-name="Layer 2"><g id="Type"><path class="cls-1" d="M18.74,8.39V35.65H17.13V8.39a6.84,6.84,0,0,0-6.78-6.78A6.8,6.8,0,0,0,3.61,8.39V21.24L6,22.63V8.39A4.43,4.43,0,0,1,10.35,4a4.43,4.43,0,0,1,4.37,4.37V24.86C12.36,23.47,10,22.18,7.63,20.8v2.76C10,25,12.36,26.24,14.72,27.62v8h-1.6V28.56L7.63,25.39V35.65H6V24.5L3.61,23.12V35.65H2V8.39A8.49,8.49,0,0,1,9,.14,8.41,8.41,0,0,1,18.74,8.39ZM7.63,18.92l5.49,3.13V8.39a2.75,2.75,0,1,0-5.49,0Z"/><path class="cls-1" d="M38.28,1.66H30.65V0H48.32V1.66H42.25V4h6.07V5.54H42.25V35.65h-1.7V5.54H38.28V35.65H36.63V5.54h-6V4h9.9V1.66Z"/><path class="cls-1" d="M60.58,0h1.65l6.34,12.22L74.77,0h1.7l-7.9,15.57ZM76.64,4.73V35.65H75V11.2l-2.28,4.6V35.65H71.07V18.74l-2.5,5.09L66,19V35.65H64.51V16L62.1,11.47V35.65H60.58V5l8,15.57Z"/><path class="cls-1" d="M106.8,8.17V27.71a8.09,8.09,0,0,1-2.63,6,8.33,8.33,0,0,1-5.49,2,7.82,7.82,0,0,1-5.35-2,8.09,8.09,0,0,1-2.63-6V8.17a8.11,8.11,0,0,1,2.63-6A7.17,7.17,0,0,1,98.68.05a7.4,7.4,0,0,1,5.49,2.14A8.11,8.11,0,0,1,106.8,8.17Zm-1.47,0a6.41,6.41,0,0,0-2.14-4.82,6.63,6.63,0,0,0-4.51-1.78,6.18,6.18,0,0,0-4.37,1.78,6.41,6.41,0,0,0-2.14,4.82V27.71a6.4,6.4,0,0,0,2.14,4.82,6,6,0,0,0,4.37,1.61,6.39,6.39,0,0,0,6.65-6.43Zm-2.23,0V27.71a3.85,3.85,0,0,1-1.56,3.13,4.19,4.19,0,0,1-2.86,1,4.38,4.38,0,0,1-2.9-1,4.24,4.24,0,0,1-1.38-3.13V8.17a4.24,4.24,0,0,1,1.38-3.12,4.34,4.34,0,0,1,2.9-1,4.15,4.15,0,0,1,2.86,1A3.85,3.85,0,0,1,103.1,8.17Zm-1.65,0a2.48,2.48,0,0,0-.89-2,2.72,2.72,0,0,0-1.88-.67,2.75,2.75,0,0,0-1.92.67,2.48,2.48,0,0,0-.89,2V27.71a2.48,2.48,0,0,0,.89,2,2.75,2.75,0,0,0,1.92.66,2.71,2.71,0,0,0,1.88-.66,2.48,2.48,0,0,0,.89-2Z"/><path class="cls-1" d="M132.5,8a5.05,5.05,0,0,0-4-2.32,4.29,4.29,0,0,0-2.23.58,3.51,3.51,0,0,0-1.47,1.56,3.46,3.46,0,0,0-.31,2,4.1,4.1,0,0,0,1,1.92,10.57,10.57,0,0,0,2.41,1.65c1.07.67,2.18,1.25,3.39,2a22.24,22.24,0,0,1,3.52,2.55,13.13,13.13,0,0,1,1.7,1.83,12,12,0,0,1,1.25,2.41,9.3,9.3,0,0,1,.49,2.67,10.93,10.93,0,0,1-.18,2.46,9.06,9.06,0,0,1-2.14,4.81,9.85,9.85,0,0,1-4.42,3,10,10,0,0,1-5.13.4,12.58,12.58,0,0,1-4.55-1.78,16.18,16.18,0,0,1-3.48-3l1.21-1a14.23,14.23,0,0,0,3.12,2.67,10.45,10.45,0,0,0,4,1.56,9,9,0,0,0,4.37-.31,7.75,7.75,0,0,0,3.66-2.45,8,8,0,0,0,1.83-4,9.19,9.19,0,0,0-.27-4.37,8.69,8.69,0,0,0-2.5-3.61,21.77,21.77,0,0,0-3.3-2.32c-1.11-.67-2.23-1.25-3.34-1.92l-.85-.49a8.59,8.59,0,0,1-1.92-1.47,4.82,4.82,0,0,1-1.38-2.77,4.67,4.67,0,0,1,.44-3,4.61,4.61,0,0,1,2.1-2.23,5.9,5.9,0,0,1,3-.81,6.34,6.34,0,0,1,5.36,3.08Zm3.39-2.14c-.22-.36-.45-.58-.67-.89l-.76-.81a8.86,8.86,0,0,0-1.74-1.29,7.93,7.93,0,0,0-4.24-1.2,8.41,8.41,0,0,0-4.28,1.11,7.4,7.4,0,0,0-3,3.26,7.57,7.57,0,0,0-.67,4.46,7.29,7.29,0,0,0,2,4,8.32,8.32,0,0,0,1.66,1.43c1.6,1.07,3.34,1.87,5,2.9,2.1,1.25,4.11,2.72,4.78,4.68a6.88,6.88,0,0,1,.18,3.17,5.83,5.83,0,0,1-1.3,2.86,5.62,5.62,0,0,1-2.59,1.74,7.15,7.15,0,0,1-3.21.22A10.28,10.28,0,0,1,121.34,28l1.21-1.07a8.48,8.48,0,0,0,4.73,2.94,4.22,4.22,0,0,0,5.22-3.48,4.74,4.74,0,0,0-.09-2.4A5,5,0,0,0,131,22.05a15.64,15.64,0,0,0-2.68-1.88c-2.5-1.47-5.13-2.54-7-4.64a9,9,0,0,1-2.36-4.82,8.62,8.62,0,0,1,.8-5.4,9.18,9.18,0,0,1,3.66-3.92,10,10,0,0,1,2.5-1,12.22,12.22,0,0,1,2.58-.31,9.94,9.94,0,0,1,5.05,1.43A11.27,11.27,0,0,1,135.58,3a8.37,8.37,0,0,1,1.65,2Z"/><path class="cls-1" d="M165.6,14.55a14,14,0,0,1-1.11,5.58,14,14,0,0,1-3.13,4.73A14.39,14.39,0,0,1,156.63,28l-1.07.41v7.22H154V24.72a11.36,11.36,0,0,1-2.41.41V35.65h-1.61V0a16.63,16.63,0,0,1,6.69,1.07,15.94,15.94,0,0,1,4.73,3.16A14,14,0,0,1,164.49,9,14.14,14.14,0,0,1,165.6,14.55Zm-1.6,0a12.4,12.4,0,0,0-1-5,13,13,0,0,0-9-7.68,11.7,11.7,0,0,0-2.41-.31V23.52A9.48,9.48,0,0,0,154,23V4.42a12.85,12.85,0,0,1,1.6.58,10.67,10.67,0,0,1,2.95,2.1,10.38,10.38,0,0,1,3.08,7.45,10.51,10.51,0,0,1-3.08,7.5,9.83,9.83,0,0,1-2.95,2.05v2.63a11.16,11.16,0,0,0,4.64-3A12.32,12.32,0,0,0,163,19.55,12.64,12.64,0,0,0,164,14.55Zm-8.44,7.76a9.56,9.56,0,0,0,1.79-1.42A8.73,8.73,0,0,0,160,14.55a8.69,8.69,0,0,0-2.63-6.33,7.76,7.76,0,0,0-1.79-1.39Z"/><path class="cls-1" d="M194.38.05v35.6h-1.61V22.14H179.92v2.41h10.44v11.1h-1.6v-9.5h-4.82v9.5h-1.61v-9.5h-2.41v9.5h-1.6V.05h1.6V20.53h2.41V.05h1.61V20.53h4.82V.05h1.6V20.53h2.41V.05Z"/><path class="cls-1" d="M210,1.57V15.18h2.37V3.93h10V5.54H214v9.64h8.43v1.56H210V30.12h2.37v-11h10v1.56H214v9.46h8.43v1.61H214v2.36h8.43v1.56h-14V0h14V1.57Zm2.37,32.52V31.73H210v2.36Z"/><path class="cls-1" d="M246.71,23.47c.4-.49.8-.89,1.16-1.38a13,13,0,0,0-8.57-20.3l1.16,2.72a10.66,10.66,0,0,1,7.36,9.19,10.63,10.63,0,0,1-6,10.4v2.63a11.83,11.83,0,0,0,3-1.6l4.42,10.52h-1.74L244,27.49a14,14,0,0,1-2.23.94v7.22h-1.61V18.39l-2.41-5.71v23h-1.6V4.73l7,16.6a9.12,9.12,0,0,0,1.74-2.1L236.8,0a14.06,14.06,0,0,1,5,.71,14.72,14.72,0,0,1,9.37,9.41,14.79,14.79,0,0,1-2.59,13.66l5,11.86h-1.74Zm-.9-6.2a9,9,0,0,0-2.18-9,7.34,7.34,0,0,0-1.83-1.38v.84Z"/><path class="cls-1" d="M266.2,1.57V15.18h2.37V3.93h10V5.54h-8.44v9.64h8.44v1.56H266.2V30.12h2.37v-11h10v1.56h-8.44v9.46h8.44v1.61h-8.44v2.36h8.44v1.56h-14V0h14V1.57Zm2.37,32.52V31.73H266.2v2.36Z"/><path class="cls-1" d="M5.41,61.69l-3-7.48L1.13,61.32H0L2,50.84h0l3.37,8.37,3.47-8.37H9l1.89,10.48H9.71l-1.2-7.1L5.44,61.69Z"/><path class="cls-1" d="M18.71,57.82V51.44H19.8v6.28c0,1.86,1,2.75,2.41,2.75s2.41-.88,2.41-2.79V51.44H25.7v6.38a3.38,3.38,0,0,1-3.49,3.69A3.39,3.39,0,0,1,18.71,57.82Z"/><path class="cls-1" d="M33.7,59.23l1-.42A2.34,2.34,0,0,0,37,60.48a1.69,1.69,0,0,0,1.8-1.74c0-1-.48-1.57-2.07-2.29s-2.48-1.35-2.48-2.73a2.52,2.52,0,0,1,2.66-2.46,2.9,2.9,0,0,1,2.68,1.64l-.91.52a1.92,1.92,0,0,0-1.77-1.14,1.47,1.47,0,0,0-1.57,1.44c0,.81.55,1.22,2.06,1.89,1.81.81,2.5,1.62,2.5,3.15A2.73,2.73,0,0,1,37,61.51,3.33,3.33,0,0,1,33.7,59.23Z"/><path class="cls-1" d="M48.16,61.32V51.44h1.09v9.88Z"/><path class="cls-1" d="M57.63,56.41a5.14,5.14,0,0,1,8-4.31v1.28a4.37,4.37,0,0,0-2.86-1.1,4.1,4.1,0,1,0,2.86,7.07v1.31a5.19,5.19,0,0,1-2.87.85A5,5,0,0,1,57.63,56.41Z"/><path class="cls-1" d="M96.46,61.77,92.54,51.44h1.18L96.47,59l2.81-7.82h0L102.08,59l2.86-7.51h1.18l-4.05,10.33h0L99.29,54l-2.81,7.8Z"/><path class="cls-1" d="M113.85,61.32V51.44H119v1h-4v2.95h3.92v1h-3.92V60.3h4v1Z"/><path class="cls-1" d="M134.35,61.32l-1.16-2.79h-4.41l-1.19,2.79h-1.17L131,50.92h0l4.46,10.4Zm-5.12-3.81h3.54l-.87-2.07c-.3-.71-.59-1.42-.88-2.13-.29.73-.6,1.43-.91,2.14Z"/><path class="cls-1" d="M143.85,61.32V52.46h-2.4v-1h5.86v1h-2.39v8.86Z"/><path class="cls-1" d="M155.1,61.32V51.44h1.09v4h4.86v-4h1.1v9.88h-1.1V56.47h-4.86v4.85Z"/><path class="cls-1" d="M170.93,61.32V51.44h5.14v1h-4v2.95h3.91v1H172V60.3h4v1Z"/><path class="cls-1" d="M190.42,61.32H189.1l-2.95-4.24h-.42v4.24h-1.09V51.44h1.43c2.14,0,3.63.88,3.63,2.77A2.82,2.82,0,0,1,187.3,57Zm-4.69-8.86v3.67h.5c1.48,0,2.41-.63,2.41-1.9s-.9-1.77-2.4-1.77Z"/><path class="cls-1" d="M222.58,61.69l-3-7.48-1.3,7.11h-1.13l2-10.48h0l3.36,8.37,3.48-8.37h0L228,61.32h-1.12l-1.21-7.1-3.07,7.47Z"/><path class="cls-1" d="M235.59,56.36a5.12,5.12,0,1,1,5.08,5.15A5.13,5.13,0,0,1,235.59,56.36Zm9.15,0a4,4,0,1,0-4.07,4.09A4,4,0,0,0,244.74,56.38Z"/><path class="cls-1" d="M253.83,56.36a5.12,5.12,0,1,1,5.08,5.15A5.13,5.13,0,0,1,253.83,56.36Zm9.15,0a4,4,0,1,0-4.07,4.09A4,4,0,0,0,263,56.38Z"/><path class="cls-1" d="M272.46,61.32V51.44h1.71c3.4,0,5.61,1.78,5.61,4.93s-2.23,5-5.72,5Zm1.09-1h.59c2.79,0,4.55-1.39,4.55-3.93s-1.59-3.91-4.46-3.91h-.68Z"/></g></g></svg>